<svg width="218" height="36" viewBox="0 0 218 36" fill="none" xmlns="http://www.w3.org/2000/svg">
<g id="logo">
<path id="Vector" d="M7.44614 28.4393V0.856445H0.546143V35.1422H5.86124H7.44614H21.196V28.4393H7.44614Z" fill="#262628"/>
<path id="Vector_2" d="M119.882 28.4393V0.856445H112.982V35.1422H118.302H119.882H133.636V28.4393H119.882Z" fill="#0085FE"/>
<path id="Vector_3" d="M27.5116 8.67321C26.4285 8.67321 25.5294 8.29178 24.8227 7.53321C24.116 6.77464 23.7605 5.84892 23.7605 4.76464C23.7605 3.68035 24.116 2.71607 24.8227 1.97464C25.5294 1.22892 26.4285 0.860352 27.5116 0.860352C28.5947 0.860352 29.4854 1.23321 30.1796 1.97464C30.8738 2.72035 31.2209 3.65035 31.2209 4.76464C31.2209 5.87892 30.8738 6.77464 30.1796 7.53321C29.4854 8.29178 28.5989 8.67321 27.5116 8.67321Z" fill="#0085FE"/>
<path id="Vector_4" d="M30.9477 11.5703H24.031V35.1417H30.9477V11.5703Z" fill="#262628"/>
<path id="Vector_5" d="M58.2004 35.1422L49.5817 23.0093L58.2589 11.5707H50.3469L42.6859 22.4564V0.856445H35.6604V35.1422H42.6859V24.0807L49.9371 35.1422H58.2004Z" fill="#262628"/>
<path id="Vector_6" d="M79.5748 16.953C78.6255 15.2473 77.3208 13.9144 75.6648 12.9501C74.0088 11.9901 72.0935 11.5059 69.9232 11.5059C67.7528 11.5059 65.687 12.0159 63.9097 13.0401C62.1324 14.0644 60.7232 15.4659 59.6819 17.2487C58.6406 19.0316 58.1221 21.0544 58.1221 23.3216C58.1221 25.5887 58.649 27.6159 59.7028 29.4159C60.7566 31.2159 62.2119 32.6173 64.0644 33.6244C65.917 34.6316 68.0372 35.1373 70.4166 35.1373C72.2566 35.1373 73.9419 34.8116 75.4808 34.1601C77.0197 33.5087 78.3286 32.5316 79.4159 31.2287L75.6188 27.3201C74.9539 28.0959 74.1886 28.6787 73.3104 29.0644C72.4364 29.4544 71.4579 29.6473 70.3706 29.6473C69.1955 29.6473 68.1794 29.3901 67.3179 28.8801C66.4564 28.3701 65.7957 27.6416 65.3273 26.6944C65.1726 26.3816 65.0555 26.0387 64.951 25.6873L80.6788 25.6487C80.8001 25.0616 80.8837 24.5387 80.9255 24.0887C80.9715 23.6387 80.9924 23.2144 80.9924 22.8073C80.9924 20.6044 80.5157 18.6501 79.5664 16.9444L79.5748 16.953ZM67.1423 17.7201C67.941 17.2101 68.8819 16.953 69.9692 16.953C70.9937 16.953 71.8594 17.1801 72.5703 17.6259C73.277 18.0759 73.8123 18.7273 74.1761 19.5801C74.3266 19.9359 74.4437 20.343 74.5357 20.7759L64.9593 20.8059C65.0513 20.4801 65.1601 20.1716 65.2939 19.8844C65.7288 18.9544 66.3477 18.2344 67.1464 17.7201H67.1423Z" fill="#262628"/>
<path id="Vector_7" d="M100.831 12.0215V13.9072C100.237 13.3243 99.5551 12.8314 98.7731 12.4414C97.5812 11.8543 96.2472 11.5586 94.7711 11.5586C92.7512 11.5586 90.9489 12.0686 89.3681 13.0929C87.7874 14.1172 86.5329 15.51 85.6171 17.28C84.6971 19.0457 84.2371 21.0643 84.2371 23.3272C84.2371 25.59 84.6971 27.6086 85.6171 29.3743C86.5371 31.14 87.7874 32.5372 89.3681 33.5614C90.9489 34.5857 92.7512 35.0957 94.7711 35.0957C96.2472 35.0957 97.5896 34.8 98.794 34.2129C99.5718 33.8314 100.245 33.3472 100.826 32.7772V34.6286H107.609V12.0172H100.826L100.831 12.0215ZM96.172 28.6757C95.2394 28.6757 94.3947 28.4443 93.642 27.9772C92.8892 27.51 92.2996 26.8757 91.8772 26.07C91.4549 25.2643 91.2458 24.3472 91.2458 23.3272C91.2458 22.3072 91.4632 21.3429 91.9023 20.5372C92.3372 19.7314 92.9269 19.1014 93.6671 18.6515C94.4072 18.2015 95.2562 17.9786 96.2222 17.9786C97.1882 17.9786 98.0371 18.2057 98.7772 18.6515C99.5174 19.1014 100.09 19.7314 100.496 20.5372C100.902 21.3429 101.107 22.2729 101.107 23.3272C101.107 24.8786 100.655 26.1557 99.7516 27.1672C98.8483 28.1743 97.6565 28.68 96.1803 28.68L96.172 28.6757Z" fill="#262628"/>
<path id="Vector_8" d="M146.83 35.1412C144.568 35.1412 142.527 34.6226 140.704 33.5812C138.881 32.5441 137.442 31.1255 136.384 29.3255C135.33 27.5255 134.803 25.5112 134.803 23.2783C134.803 21.0455 135.33 19.0441 136.384 17.2783C137.438 15.5083 138.872 14.1069 140.679 13.0698C142.485 12.0326 144.538 11.5098 146.826 11.5098C149.113 11.5098 151.167 12.0198 152.973 13.0441C154.784 14.0683 156.214 15.4698 157.268 17.2526C158.322 19.0355 158.849 21.0455 158.849 23.2783C158.849 25.5112 158.322 27.5298 157.268 29.3255C156.214 31.1255 154.78 32.5441 152.973 33.5812C151.167 34.6226 149.113 35.1412 146.826 35.1412H146.83ZM146.83 28.6741C147.825 28.6741 148.699 28.4512 149.452 28.0012C150.205 27.5512 150.786 26.9169 151.192 26.0941C151.597 25.2712 151.802 24.3326 151.802 23.2783C151.802 22.2241 151.589 21.3026 151.171 20.5098C150.749 19.7212 150.167 19.0998 149.431 18.6498C148.691 18.1998 147.825 17.9769 146.83 17.9769C145.835 17.9769 145.007 18.2041 144.254 18.6498C143.501 19.0998 142.912 19.7298 142.489 20.5355C142.067 21.3412 141.858 22.2712 141.858 23.3255C141.858 24.3798 142.067 25.2712 142.489 26.0941C142.912 26.9169 143.497 27.5512 144.254 28.0012C145.007 28.4512 145.868 28.6741 146.83 28.6741Z" fill="#0085FE"/>
<path id="Vector_9" d="M172.92 35.1412C170.657 35.1412 168.608 34.6312 166.773 33.6069C164.933 32.5826 163.486 31.1726 162.432 29.3726C161.378 27.5726 160.851 25.5583 160.851 23.3255C160.851 21.0926 161.386 19.0398 162.457 17.2526C163.527 15.4698 164.983 14.0641 166.819 13.0441C168.659 12.0198 170.72 11.5098 173.012 11.5098C174.731 11.5098 176.303 11.8141 177.737 12.4183C179.167 13.0226 180.443 13.9312 181.559 15.1398L177.127 19.6998C176.612 19.1126 176.019 18.6755 175.341 18.3969C174.664 18.1183 173.886 17.9769 173.012 17.9769C172.017 17.9769 171.134 18.2041 170.365 18.6498C169.595 19.0998 168.993 19.7212 168.558 20.5098C168.119 21.3026 167.902 22.2241 167.902 23.2783C167.902 24.3326 168.119 25.2626 168.558 26.0683C168.993 26.8741 169.604 27.5126 170.39 27.9755C171.172 28.4426 172.046 28.6741 173.012 28.6741C173.915 28.6741 174.722 28.5112 175.429 28.1855C176.136 27.8598 176.746 27.4012 177.261 26.8141L181.647 31.3741C180.501 32.6126 179.205 33.5555 177.758 34.1898C176.311 34.8241 174.697 35.1455 172.92 35.1455V35.1412Z" fill="#0085FE"/>
<path id="Vector_10" d="M199.416 12.0215V13.9072C198.822 13.3243 198.141 12.8314 197.359 12.4414C196.167 11.8543 194.833 11.5586 193.357 11.5586C191.337 11.5586 189.534 12.0686 187.954 13.0929C186.373 14.1172 185.118 15.51 184.203 17.28C183.283 19.0457 182.823 21.0643 182.823 23.3272C182.823 25.59 183.283 27.6086 184.203 29.3743C185.123 31.14 186.373 32.5372 187.954 33.5614C189.534 34.5857 191.337 35.0957 193.357 35.0957C194.833 35.0957 196.175 34.8 197.379 34.2129C198.157 33.8314 198.83 33.3472 199.412 32.7772V34.6286H206.195V12.0172H199.412L199.416 12.0215ZM194.757 28.6757C193.825 28.6757 192.98 28.4443 192.227 27.9772C191.475 27.51 190.885 26.8757 190.463 26.07C190.04 25.2643 189.831 24.3472 189.831 23.3272C189.831 22.3072 190.049 21.3429 190.488 20.5372C190.923 19.7314 191.512 19.1014 192.253 18.6515C192.993 18.2015 193.842 17.9786 194.808 17.9786C195.774 17.9786 196.623 18.2057 197.363 18.6515C198.103 19.1014 198.676 19.7314 199.081 20.5372C199.487 21.3429 199.692 22.2729 199.692 23.3272C199.692 24.8786 199.24 26.1557 198.337 27.1672C197.434 28.1743 196.242 28.68 194.766 28.68L194.757 28.6757Z" fill="#0085FE"/>
<path id="Vector_11" d="M211.083 35.1422V0.856445H218V35.1422H211.083Z" fill="#0085FE"/>
</g>
</svg>
