<svg width="42" height="44" viewBox="0 0 42 44" fill="none" xmlns="http://www.w3.org/2000/svg">
<g id="symbol-sep">
<path id="Vector" d="M21.4491 34.8564H4.18237C7.99619 40.0593 14.0682 43.4279 20.9096 43.4279C24.184 43.4279 27.2827 42.6522 30.0469 41.2764C26.07 41.1607 22.712 38.5164 21.4491 34.8564Z" fill="#262628"/>
<path id="Vector_2" d="M40.0747 13.4275C36.8463 5.85888 29.4822 0.570312 20.9094 0.570312V13.4275H40.0747Z" fill="#262628"/>
<g id="Group">
<path id="Vector_3" d="M40.0744 13.4275H20.9091V0.570312H0V21.9989C0 26.8246 1.55564 31.2732 4.18182 34.856H21.4485C21.1015 33.8489 20.9091 32.7689 20.9091 31.6417C20.9091 26.3146 25.1202 21.9989 30.3182 21.9989C35.5162 21.9989 39.5767 26.1646 39.7189 31.3632C41.0613 28.5346 41.8182 25.3589 41.8182 22.0032C41.8182 18.9517 41.1909 16.0546 40.0744 13.4317V13.4275Z" fill="#0085FE"/>
<path id="Vector_4" d="M30.3185 21.999C25.1205 21.999 20.9094 26.3147 20.9094 31.6419C20.9094 32.769 21.1018 33.849 21.4489 34.8562C22.7118 38.5162 26.0698 41.1605 30.0467 41.2762C33.0492 39.7805 35.6503 37.5647 37.6409 34.8562C38.4396 33.7676 39.138 32.5976 39.7234 31.3633C39.5771 26.169 35.4245 21.999 30.3227 21.999H30.3185Z" fill="#0A4ED2"/>
</g>
</g>
</svg>
